<?xml version="1.0" encoding="iso-8859-1"?>
<!-- Generator: Adobe Illustrator 19.0.0, SVG Export Plug-In . SVG Version: 6.00 Build 0)  -->
<svg version="1.1" id="Capa_1" xmlns="http://www.w3.org/2000/svg" xmlns:xlink="http://www.w3.org/1999/xlink" x="0px" y="0px"
	 viewBox="0 0 512 512" style="enable-background:new 0 0 512 512;" xml:space="preserve">
<path style="fill:#AEA8AF;" d="M368.22,312.112H31.548c-13.282,0-24.048-10.767-24.048-24.048V63.616
	c0-13.282,10.767-24.048,24.048-24.048h336.672c13.282,0,24.048,10.767,24.048,24.048v224.449
	C392.268,301.345,381.501,312.112,368.22,312.112z"/>
<path style="fill:#9C969E;" d="M31.548,127.744V39.568C18.267,39.568,7.5,50.334,7.5,63.616v224.449
	c0,13.282,10.767,24.048,24.048,24.048h336.672c13.282,0,24.048-10.767,24.048-24.048H191.868
	C103.325,288.064,31.548,216.286,31.548,127.744z"/>
<path style="fill:#FFD164;" d="M103.692,175.84H71.628c-8.854,0-16.032-7.178-16.032-16.032v-16.032
	c0-8.854,7.178-16.032,16.032-16.032h32.065c8.854,0,16.032,7.178,16.032,16.032v16.032
	C119.724,168.662,112.546,175.84,103.692,175.84z"/>
<circle style="fill:#FFE17D;" cx="312.105" cy="119.728" r="32.06"/>
<circle style="fill:#E6646E;" cx="247.976" cy="119.728" r="32.06"/>
<path style="fill:#EDEBED;" d="M498.667,278.409l-101.991-29.165c-2.881-0.824-5.935-0.824-8.815,0l-101.99,29.165
	c-3.464,0.991-5.857,4.121-5.817,7.724c0.292,25.763,8.007,127.155,108.211,184.098c2.43,1.381,5.511,1.418,7.972,0.093
	c100.444-54.107,107.986-158.064,108.248-184.199C504.52,282.522,502.131,279.399,498.667,278.409z"/>
<path style="fill:#DBD9DC;" d="M387.86,249.245l-101.99,29.164c-3.463,0.99-5.858,4.124-5.817,7.725
	c0.292,25.765,8.008,127.155,108.211,184.097c1.223,0.695,2.612,1.046,4.003,1.058V248.627
	C390.784,248.627,389.301,248.833,387.86,249.245z"/>
<path style="fill:#FFD164;" d="M392.268,281.332l79.021,22.596c-3.696,32.381-18.79,93.071-78.68,131.36
	c-60.327-40.016-75.612-99.464-79.357-131.361L392.268,281.332"/>
<path style="fill:#FFE17D;" d="M392.268,306.345l51.695,14.782c-5.944,25.693-19.672,58.978-51.166,84.442
	c-32.004-26.293-46.008-59.214-52.09-84.48L392.268,306.345"/>
<path d="M511.888,279.621c-0.182-3.186-2.359-5.907-5.427-6.784l-112.132-32.064c-1.348-0.386-2.775-0.386-4.123,0l-112.132,32.064
	c-3.063,0.876-5.239,3.591-5.426,6.772c-0.079,1.358-1.798,33.743,11.568,74.601c12.354,37.765,40.5,90.076,104.427,124.812
	c1.116,0.606,2.348,0.91,3.581,0.91c1.173,0,2.348-0.275,3.423-0.827c64.085-32.866,92.291-85.336,104.667-123.565
	C513.682,314.253,511.968,281.015,511.888,279.621z M486.045,350.92c-7.333,22.65-18.018,43.168-31.756,60.986
	c-16.383,21.247-37.213,38.727-61.965,52.006c-45.776-25.888-77.279-64.159-93.669-113.811
	c-9.587-29.045-10.985-53.938-11.096-64.374l104.708-29.941l104.717,29.944C496.898,296.271,495.561,321.525,486.045,350.92z"/>
<path d="M311.19,296.716c-3.535,1.011-5.816,4.435-5.388,8.085c3.896,33.172,19.813,95.049,82.661,136.737
	c1.255,0.833,2.7,1.25,4.146,1.25c1.403,0,2.808-0.393,4.04-1.181c62.393-39.889,78.214-102.849,82.091-136.828
	c0.416-3.644-1.863-7.053-5.39-8.062l-79.02-22.597c-1.348-0.386-2.776-0.386-4.124,0L311.19,296.716z M463.014,309.363
	c-4.647,31.491-20.083,82.632-70.334,116.892c-50.794-35.721-66.419-86.068-71.128-116.901l70.716-20.222L463.014,309.363z"/>
<path d="M247.98,304.612H31.549c-9.125,0-16.549-7.423-16.549-16.548V63.616c0-9.125,7.424-16.548,16.549-16.548H368.22
	c9.125,0,16.549,7.423,16.549,16.548v152.303c0,4.142,3.357,7.5,7.5,7.5s7.5-3.358,7.5-7.5V63.616
	c0-17.396-14.152-31.548-31.548-31.548H31.549C14.152,32.068,0,46.22,0,63.616v224.449c0,17.396,14.152,31.548,31.549,31.548
	h216.433c4.143,0,7.5-3.358,7.5-7.5C255.481,307.97,252.123,304.612,247.98,304.612z"/>
<path d="M71.628,183.34h32.063c12.976,0,23.532-10.557,23.532-23.532v-16.033c0-12.976-10.557-23.532-23.532-23.532H71.628
	c-12.976,0-23.532,10.557-23.532,23.532v16.033C48.096,172.783,58.652,183.34,71.628,183.34z M112.224,143.775v16.033
	c0,4.705-3.827,8.532-8.532,8.532h-8.532v-33.096h8.532C108.396,135.243,112.224,139.07,112.224,143.775z M63.096,143.775
	c0-4.705,3.827-8.532,8.532-8.532h8.532v33.096h-8.532c-4.705,0-8.532-3.828-8.532-8.532V143.775z"/>
<path d="M55.596,223.42h48.096c4.143,0,7.5-3.358,7.5-7.5c0-4.142-3.357-7.5-7.5-7.5H55.596c-4.143,0-7.5,3.358-7.5,7.5
	C48.096,220.062,51.453,223.42,55.596,223.42z"/>
<path d="M183.851,208.42h-48.096c-4.143,0-7.5,3.358-7.5,7.5c0,4.142,3.357,7.5,7.5,7.5h48.096c4.143,0,7.5-3.358,7.5-7.5
	C191.351,211.778,187.994,208.42,183.851,208.42z"/>
<path d="M55.596,263.499h160.32c4.143,0,7.5-3.358,7.5-7.5c0-4.142-3.357-7.5-7.5-7.5H55.596c-4.143,0-7.5,3.358-7.5,7.5
	C48.096,260.141,51.453,263.499,55.596,263.499z"/>
<path d="M264.013,208.42h-48.097c-4.143,0-7.5,3.358-7.5,7.5c0,4.142,3.357,7.5,7.5,7.5h48.097c4.143,0,7.5-3.358,7.5-7.5
	C271.513,211.778,268.155,208.42,264.013,208.42z"/>
<path d="M296.076,208.42c-4.143,0-7.5,3.358-7.5,7.5c0,4.142,3.357,7.5,7.5,7.5h48.096c4.143,0,7.5-3.358,7.5-7.5
	c0-4.142-3.357-7.5-7.5-7.5H296.076z"/>
<path d="M312.108,80.163c-13.182,0-24.871,6.486-32.064,16.428c-7.194-9.942-18.883-16.428-32.065-16.428
	c-21.816,0-39.563,17.749-39.563,39.563c0,21.816,17.748,39.564,39.563,39.564c13.182,0,24.871-6.486,32.065-16.428
	c7.194,9.942,18.883,16.428,32.064,16.428c21.816,0,39.563-17.749,39.563-39.564C351.673,97.912,333.925,80.163,312.108,80.163z
	 M247.979,144.292c-13.545,0-24.564-11.02-24.564-24.565s11.02-24.564,24.564-24.564c13.546,0,24.565,11.02,24.565,24.564
	S261.525,144.292,247.979,144.292z M312.108,144.292c-13.545,0-24.564-11.02-24.564-24.565s11.02-24.564,24.564-24.564
	s24.564,11.02,24.564,24.564S325.653,144.292,312.108,144.292z"/>
<g>
</g>
<g>
</g>
<g>
</g>
<g>
</g>
<g>
</g>
<g>
</g>
<g>
</g>
<g>
</g>
<g>
</g>
<g>
</g>
<g>
</g>
<g>
</g>
<g>
</g>
<g>
</g>
<g>
</g>
</svg>
